<svg xmlns="http://www.w3.org/2000/svg" width="20.692" height="20.692" viewBox="0 0 20.692 20.692"><defs><style>.a{fill:none;stroke:#d93069;}</style></defs><g transform="translate(0.47 0.5)"><path class="a" d="M.358,5.251H2.327a.328.328,0,0,0,.328-.328v-2.3h2.3A.328.328,0,0,0,5.281,2.3V.328A.328.328,0,0,0,4.953,0H.358A.328.328,0,0,0,.03.328V4.923a.328.328,0,0,0,.328.328Z"/><path class="a" d="M4.953,46.626h-2.3v-2.3A.328.328,0,0,0,2.327,44H.358a.328.328,0,0,0-.328.328v4.595a.328.328,0,0,0,.328.328H4.953a.328.328,0,0,0,.328-.328V46.954a.328.328,0,0,0-.328-.328Z" transform="translate(0 -29.559)"/><path class="a" d="M48.953,0H44.358a.328.328,0,0,0-.328.328V2.3a.328.328,0,0,0,.328.328h2.3v2.3a.328.328,0,0,0,.328.328h1.969a.328.328,0,0,0,.328-.328V.328A.328.328,0,0,0,48.953,0Z" transform="translate(-29.559)"/><path class="a" d="M48.953,44H46.984a.328.328,0,0,0-.328.328v2.3h-2.3a.328.328,0,0,0-.328.328v1.969a.328.328,0,0,0,.328.328h4.595a.328.328,0,0,0,.328-.328V44.328A.328.328,0,0,0,48.953,44Z" transform="translate(-29.559 -29.559)"/><path class="a" d="M14.455,18.251V14.328A.328.328,0,0,0,14.127,14h-8.5a.328.328,0,0,0-.328.328v3.923c-.007,2.17-.007-.372,0,.656v3.923a.328.328,0,0,0,.328.328h8.5a.328.328,0,0,0,.328-.328V18.251Z" transform="translate(0 -8.733)"/></g></svg>